<mxfile host="app.diagrams.net" modified="2024-01-11T06:48:40.194Z" agent="Mozilla/5.0 (Windows NT 10.0; Win64; x64) AppleWebKit/537.36 (KHTML, like Gecko) Chrome/120.0.0.0 Safari/537.36 Edg/120.0.0.0" etag="Go7ha5taUCIQfDZna7O_" version="22.1.17" type="github">
  <diagram name="第 1 页" id="DEjIbC8M0QPoEUeSra0J">
    <mxGraphModel dx="1386" dy="-15" grid="0" gridSize="10" guides="1" tooltips="1" connect="1" arrows="1" fold="1" page="0" pageScale="1" pageWidth="827" pageHeight="1169" math="0" shadow="0">
      <root>
        <mxCell id="0" />
        <mxCell id="1" parent="0" />
        <mxCell id="6QcQfjJBbUapgguKm4HS-189" value="" style="whiteSpace=wrap;html=1;dashed=1;" vertex="1" parent="1">
          <mxGeometry x="1565" y="2016" width="737" height="608" as="geometry" />
        </mxCell>
        <mxCell id="rQOuPGtzIIbg4ZmECWrg-153" value="配置管理模块" style="text;html=1;align=center;verticalAlign=middle;resizable=0;points=[];autosize=1;strokeColor=none;fillColor=none;fontSize=16;" parent="1" vertex="1">
          <mxGeometry x="159" y="968" width="114" height="31" as="geometry" />
        </mxCell>
        <mxCell id="rQOuPGtzIIbg4ZmECWrg-155" value="证书密钥" style="whiteSpace=wrap;html=1;fontSize=12;align=left;spacing=2;spacingTop=0;" parent="1" vertex="1">
          <mxGeometry x="168" y="1008" width="96" height="30" as="geometry" />
        </mxCell>
        <mxCell id="rQOuPGtzIIbg4ZmECWrg-156" value="加密通道" style="whiteSpace=wrap;html=1;fontSize=12;align=left;spacing=2;spacingTop=0;" parent="1" vertex="1">
          <mxGeometry x="168" y="1038" width="96" height="30" as="geometry" />
        </mxCell>
        <mxCell id="rQOuPGtzIIbg4ZmECWrg-157" value="虚拟&lt;span style=&quot;font-size: 12px; font-family: &amp;quot;Times New Roman&amp;quot;, serif;&quot; lang=&quot;EN-US&quot;&gt;ip&lt;/span&gt;&lt;span style=&quot;font-size: 12px; font-family: 宋体;&quot;&gt;地址池配置&lt;/span&gt;" style="whiteSpace=wrap;html=1;fontSize=12;align=left;spacing=2;spacingTop=0;" parent="1" vertex="1">
          <mxGeometry x="168" y="1066" width="96" height="30" as="geometry" />
        </mxCell>
        <mxCell id="rQOuPGtzIIbg4ZmECWrg-159" value="证书认证配置" style="whiteSpace=wrap;html=1;fontSize=12;align=left;spacing=2;spacingTop=0;" parent="1" vertex="1">
          <mxGeometry x="168" y="1096" width="96" height="30" as="geometry" />
        </mxCell>
        <mxCell id="rQOuPGtzIIbg4ZmECWrg-160" value="白名单" style="whiteSpace=wrap;html=1;fontSize=12;align=left;spacing=2;spacingTop=0;" parent="1" vertex="1">
          <mxGeometry x="168" y="1186" width="96" height="30" as="geometry" />
        </mxCell>
        <mxCell id="rQOuPGtzIIbg4ZmECWrg-161" value="小站管理" style="whiteSpace=wrap;html=1;fontSize=12;align=left;spacing=2;spacingTop=0;" parent="1" vertex="1">
          <mxGeometry x="168" y="1246" width="96" height="30" as="geometry" />
        </mxCell>
        <mxCell id="rQOuPGtzIIbg4ZmECWrg-162" value="SCTP链路配置" style="whiteSpace=wrap;html=1;fontSize=12;align=left;spacing=2;spacingTop=0;" parent="1" vertex="1">
          <mxGeometry x="168" y="1216" width="96" height="30" as="geometry" />
        </mxCell>
        <mxCell id="rQOuPGtzIIbg4ZmECWrg-163" value="本地环路配置" style="whiteSpace=wrap;html=1;fontSize=12;align=left;spacing=2;spacingTop=0;" parent="1" vertex="1">
          <mxGeometry x="168" y="1276" width="96" height="30" as="geometry" />
        </mxCell>
        <mxCell id="rQOuPGtzIIbg4ZmECWrg-164" value="动态SIM配置" style="whiteSpace=wrap;html=1;fontSize=12;align=left;spacing=2;spacingTop=0;" parent="1" vertex="1">
          <mxGeometry x="168" y="1156" width="96" height="30" as="geometry" />
        </mxCell>
        <mxCell id="rQOuPGtzIIbg4ZmECWrg-272" style="edgeStyle=none;curved=1;rounded=0;orthogonalLoop=1;jettySize=auto;html=1;exitX=0.5;exitY=1;exitDx=0;exitDy=0;entryX=0.5;entryY=0;entryDx=0;entryDy=0;fontSize=12;startSize=8;endSize=8;startArrow=classic;startFill=1;" parent="1" source="rQOuPGtzIIbg4ZmECWrg-166" target="rQOuPGtzIIbg4ZmECWrg-244" edge="1">
          <mxGeometry relative="1" as="geometry" />
        </mxCell>
        <mxCell id="rQOuPGtzIIbg4ZmECWrg-166" value="License" style="whiteSpace=wrap;html=1;fontSize=12;align=left;spacing=2;spacingTop=0;" parent="1" vertex="1">
          <mxGeometry x="168" y="1546" width="96" height="30" as="geometry" />
        </mxCell>
        <mxCell id="rQOuPGtzIIbg4ZmECWrg-169" value="ran参数配置" style="whiteSpace=wrap;html=1;fontSize=12;align=left;spacing=2;spacingTop=0;" parent="1" vertex="1">
          <mxGeometry x="168" y="1336" width="96" height="30" as="geometry" />
        </mxCell>
        <mxCell id="rQOuPGtzIIbg4ZmECWrg-170" value="ta参数配置" style="whiteSpace=wrap;html=1;fontSize=12;align=left;spacing=2;spacingTop=0;" parent="1" vertex="1">
          <mxGeometry x="168" y="1396" width="96" height="30" as="geometry" />
        </mxCell>
        <mxCell id="rQOuPGtzIIbg4ZmECWrg-171" value="nassai参数配置" style="whiteSpace=wrap;html=1;fontSize=12;align=left;spacing=2;spacingTop=0;" parent="1" vertex="1">
          <mxGeometry x="168" y="1366" width="96" height="30" as="geometry" />
        </mxCell>
        <mxCell id="rQOuPGtzIIbg4ZmECWrg-172" value="guami参数配置" style="whiteSpace=wrap;html=1;fontSize=12;align=left;spacing=2;spacingTop=0;" parent="1" vertex="1">
          <mxGeometry x="168" y="1426" width="96" height="30" as="geometry" />
        </mxCell>
        <mxCell id="rQOuPGtzIIbg4ZmECWrg-173" value="core参数配置" style="whiteSpace=wrap;html=1;fontSize=12;align=left;spacing=2;spacingTop=0;" parent="1" vertex="1">
          <mxGeometry x="168" y="1306" width="96" height="30" as="geometry" />
        </mxCell>
        <mxCell id="rQOuPGtzIIbg4ZmECWrg-174" value="datagw参数配置" style="whiteSpace=wrap;html=1;fontSize=12;align=left;spacing=2;spacingTop=0;" parent="1" vertex="1">
          <mxGeometry x="168" y="1486" width="96" height="30" as="geometry" />
        </mxCell>
        <mxCell id="rQOuPGtzIIbg4ZmECWrg-176" value="信令流控配置" style="whiteSpace=wrap;html=1;fontSize=12;align=left;spacing=2;spacingTop=0;" parent="1" vertex="1">
          <mxGeometry x="168" y="1516" width="96" height="30" as="geometry" />
        </mxCell>
        <mxCell id="rQOuPGtzIIbg4ZmECWrg-178" value="plmn参数配置" style="whiteSpace=wrap;html=1;fontSize=12;align=left;spacing=2;spacingTop=0;" parent="1" vertex="1">
          <mxGeometry x="168" y="1456" width="96" height="30" as="geometry" />
        </mxCell>
        <mxCell id="rQOuPGtzIIbg4ZmECWrg-179" value="证书上传" style="whiteSpace=wrap;html=1;fontSize=12;align=left;spacing=2;spacingTop=0;" parent="1" vertex="1">
          <mxGeometry x="168" y="1126" width="96" height="30" as="geometry" />
        </mxCell>
        <mxCell id="rQOuPGtzIIbg4ZmECWrg-181" value="维护管理模块" style="text;html=1;align=center;verticalAlign=middle;resizable=0;points=[];autosize=1;strokeColor=none;fillColor=none;fontSize=16;" parent="1" vertex="1">
          <mxGeometry x="293" y="968" width="114" height="31" as="geometry" />
        </mxCell>
        <mxCell id="rQOuPGtzIIbg4ZmECWrg-182" value="IP接口路由状态" style="whiteSpace=wrap;html=1;fontSize=12;align=left;spacing=2;spacingTop=0;" parent="1" vertex="1">
          <mxGeometry x="302" y="1008" width="120" height="30" as="geometry" />
        </mxCell>
        <mxCell id="rQOuPGtzIIbg4ZmECWrg-183" value="安全通道状态" style="whiteSpace=wrap;html=1;fontSize=12;align=left;spacing=2;spacingTop=0;" parent="1" vertex="1">
          <mxGeometry x="302" y="1038" width="120" height="30" as="geometry" />
        </mxCell>
        <mxCell id="rQOuPGtzIIbg4ZmECWrg-184" value="SCTP-CN链路状态" style="whiteSpace=wrap;html=1;fontSize=12;align=left;spacing=2;spacingTop=0;" parent="1" vertex="1">
          <mxGeometry x="302" y="1066" width="120" height="30" as="geometry" />
        </mxCell>
        <mxCell id="rQOuPGtzIIbg4ZmECWrg-185" value="SCTP-RAN链路状态" style="whiteSpace=wrap;html=1;fontSize=12;align=left;spacing=2;spacingTop=0;" parent="1" vertex="1">
          <mxGeometry x="302" y="1096" width="120" height="30" as="geometry" />
        </mxCell>
        <mxCell id="rQOuPGtzIIbg4ZmECWrg-186" value="DPDK网口业务查询" style="whiteSpace=wrap;html=1;fontSize=12;align=left;spacing=2;spacingTop=0;" parent="1" vertex="1">
          <mxGeometry x="302" y="1186" width="120" height="30" as="geometry" />
        </mxCell>
        <mxCell id="rQOuPGtzIIbg4ZmECWrg-187" value="虚拟ran业务查询" style="whiteSpace=wrap;html=1;fontSize=12;align=left;spacing=2;spacingTop=0;" parent="1" vertex="1">
          <mxGeometry x="302" y="1246" width="120" height="30" as="geometry" />
        </mxCell>
        <mxCell id="rQOuPGtzIIbg4ZmECWrg-188" value="虚拟core业务查询" style="whiteSpace=wrap;html=1;fontSize=12;align=left;spacing=2;spacingTop=0;" parent="1" vertex="1">
          <mxGeometry x="302" y="1216" width="120" height="30" as="geometry" />
        </mxCell>
        <mxCell id="rQOuPGtzIIbg4ZmECWrg-189" value="小站业务状态查询" style="whiteSpace=wrap;html=1;fontSize=12;align=left;spacing=2;spacingTop=0;" parent="1" vertex="1">
          <mxGeometry x="302" y="1276" width="120" height="30" as="geometry" />
        </mxCell>
        <mxCell id="rQOuPGtzIIbg4ZmECWrg-190" value="pdu-session业务查询" style="whiteSpace=wrap;html=1;fontSize=12;align=left;spacing=2;spacingTop=0;" parent="1" vertex="1">
          <mxGeometry x="302" y="1156" width="120" height="30" as="geometry" />
        </mxCell>
        <mxCell id="rQOuPGtzIIbg4ZmECWrg-192" value="设备调试抓包跟踪" style="whiteSpace=wrap;html=1;fontSize=12;align=left;spacing=2;spacingTop=0;" parent="1" vertex="1">
          <mxGeometry x="302" y="1336" width="120" height="30" as="geometry" />
        </mxCell>
        <mxCell id="rQOuPGtzIIbg4ZmECWrg-193" value="设备调试进程复位" style="whiteSpace=wrap;html=1;fontSize=12;align=left;spacing=2;spacingTop=0;" parent="1" vertex="1">
          <mxGeometry x="302" y="1396" width="120" height="30" as="geometry" />
        </mxCell>
        <mxCell id="rQOuPGtzIIbg4ZmECWrg-194" value="设备调试webssh" style="whiteSpace=wrap;html=1;fontSize=12;align=left;spacing=2;spacingTop=0;" parent="1" vertex="1">
          <mxGeometry x="302" y="1366" width="120" height="30" as="geometry" />
        </mxCell>
        <mxCell id="rQOuPGtzIIbg4ZmECWrg-195" value="健康检查" style="whiteSpace=wrap;html=1;fontSize=12;align=left;spacing=2;spacingTop=0;" parent="1" vertex="1">
          <mxGeometry x="302" y="1426" width="120" height="30" as="geometry" />
        </mxCell>
        <mxCell id="rQOuPGtzIIbg4ZmECWrg-196" value="设备调试日志下载" style="whiteSpace=wrap;html=1;fontSize=12;align=left;spacing=2;spacingTop=0;" parent="1" vertex="1">
          <mxGeometry x="302" y="1306" width="120" height="30" as="geometry" />
        </mxCell>
        <mxCell id="rQOuPGtzIIbg4ZmECWrg-276" style="edgeStyle=none;curved=1;rounded=0;orthogonalLoop=1;jettySize=auto;html=1;exitX=0.5;exitY=1;exitDx=0;exitDy=0;fontSize=12;startSize=8;endSize=8;startArrow=classic;startFill=1;" parent="1" source="rQOuPGtzIIbg4ZmECWrg-199" target="rQOuPGtzIIbg4ZmECWrg-244" edge="1">
          <mxGeometry relative="1" as="geometry" />
        </mxCell>
        <mxCell id="rQOuPGtzIIbg4ZmECWrg-199" value="备份恢复" style="whiteSpace=wrap;html=1;fontSize=12;align=left;spacing=2;spacingTop=0;" parent="1" vertex="1">
          <mxGeometry x="302" y="1456" width="120" height="30" as="geometry" />
        </mxCell>
        <mxCell id="rQOuPGtzIIbg4ZmECWrg-200" value="链路收发信息" style="whiteSpace=wrap;html=1;fontSize=12;align=left;spacing=2;spacingTop=0;" parent="1" vertex="1">
          <mxGeometry x="302" y="1126" width="120" height="30" as="geometry" />
        </mxCell>
        <mxCell id="rQOuPGtzIIbg4ZmECWrg-202" value="告警管理模块" style="text;html=1;align=center;verticalAlign=middle;resizable=0;points=[];autosize=1;strokeColor=none;fillColor=none;fontSize=16;" parent="1" vertex="1">
          <mxGeometry x="800" y="968" width="114" height="31" as="geometry" />
        </mxCell>
        <mxCell id="rQOuPGtzIIbg4ZmECWrg-203" value="告警查询" style="whiteSpace=wrap;html=1;fontSize=12;align=left;spacing=2;spacingTop=0;" parent="1" vertex="1">
          <mxGeometry x="809" y="1008" width="90" height="30" as="geometry" />
        </mxCell>
        <mxCell id="rQOuPGtzIIbg4ZmECWrg-204" value="当前告警确认" style="whiteSpace=wrap;html=1;fontSize=12;align=left;spacing=2;spacingTop=0;" parent="1" vertex="1">
          <mxGeometry x="809" y="1038" width="90" height="30" as="geometry" />
        </mxCell>
        <mxCell id="rQOuPGtzIIbg4ZmECWrg-205" value="当前告警屏蔽" style="whiteSpace=wrap;html=1;fontSize=12;align=left;spacing=2;spacingTop=0;" parent="1" vertex="1">
          <mxGeometry x="809" y="1066" width="90" height="30" as="geometry" />
        </mxCell>
        <mxCell id="MGpcBs6N29of94yibkw6-12" style="rounded=0;orthogonalLoop=1;jettySize=auto;html=1;exitX=0.5;exitY=1;exitDx=0;exitDy=0;entryX=0.5;entryY=0;entryDx=0;entryDy=0;startArrow=classic;startFill=1;" parent="1" source="rQOuPGtzIIbg4ZmECWrg-219" target="rQOuPGtzIIbg4ZmECWrg-246" edge="1">
          <mxGeometry relative="1" as="geometry" />
        </mxCell>
        <mxCell id="rQOuPGtzIIbg4ZmECWrg-219" value="当前告警恢复" style="whiteSpace=wrap;html=1;fontSize=12;align=left;spacing=2;spacingTop=0;" parent="1" vertex="1">
          <mxGeometry x="809" y="1096" width="90" height="30" as="geometry" />
        </mxCell>
        <mxCell id="rQOuPGtzIIbg4ZmECWrg-220" value="日志管理模块" style="text;html=1;align=center;verticalAlign=middle;resizable=0;points=[];autosize=1;strokeColor=none;fillColor=none;fontSize=16;" parent="1" vertex="1">
          <mxGeometry x="559" y="968" width="114" height="31" as="geometry" />
        </mxCell>
        <mxCell id="rQOuPGtzIIbg4ZmECWrg-221" value="日志导出" style="whiteSpace=wrap;html=1;fontSize=12;align=left;spacing=2;spacingTop=0;" parent="1" vertex="1">
          <mxGeometry x="568" y="1008" width="90" height="30" as="geometry" />
        </mxCell>
        <mxCell id="rQOuPGtzIIbg4ZmECWrg-222" value="配置日志查询" style="whiteSpace=wrap;html=1;fontSize=12;align=left;spacing=2;spacingTop=0;" parent="1" vertex="1">
          <mxGeometry x="568" y="1038" width="90" height="30" as="geometry" />
        </mxCell>
        <mxCell id="rQOuPGtzIIbg4ZmECWrg-223" value="安全日志查询" style="whiteSpace=wrap;html=1;fontSize=12;align=left;spacing=2;spacingTop=0;" parent="1" vertex="1">
          <mxGeometry x="568" y="1066" width="90" height="30" as="geometry" />
        </mxCell>
        <mxCell id="rQOuPGtzIIbg4ZmECWrg-224" value="操作日志查询" style="whiteSpace=wrap;html=1;fontSize=12;align=left;spacing=2;spacingTop=0;" parent="1" vertex="1">
          <mxGeometry x="568" y="1096" width="90" height="30" as="geometry" />
        </mxCell>
        <mxCell id="rQOuPGtzIIbg4ZmECWrg-225" value="话统管理模块" style="text;html=1;align=center;verticalAlign=middle;resizable=0;points=[];autosize=1;strokeColor=none;fillColor=none;fontSize=16;" parent="1" vertex="1">
          <mxGeometry x="1050" y="968" width="114" height="31" as="geometry" />
        </mxCell>
        <mxCell id="rQOuPGtzIIbg4ZmECWrg-226" value="话筒管理" style="whiteSpace=wrap;html=1;fontSize=12;align=left;spacing=2;spacingTop=0;" parent="1" vertex="1">
          <mxGeometry x="1059" y="1008" width="90" height="30" as="geometry" />
        </mxCell>
        <mxCell id="MGpcBs6N29of94yibkw6-14" style="rounded=0;orthogonalLoop=1;jettySize=auto;html=1;exitX=0.5;exitY=1;exitDx=0;exitDy=0;startArrow=classic;startFill=1;" parent="1" source="rQOuPGtzIIbg4ZmECWrg-227" target="rQOuPGtzIIbg4ZmECWrg-242" edge="1">
          <mxGeometry relative="1" as="geometry" />
        </mxCell>
        <mxCell id="rQOuPGtzIIbg4ZmECWrg-227" value="性能统计查询" style="whiteSpace=wrap;html=1;fontSize=12;align=left;spacing=2;spacingTop=0;" parent="1" vertex="1">
          <mxGeometry x="1059" y="1038" width="90" height="30" as="geometry" />
        </mxCell>
        <mxCell id="rQOuPGtzIIbg4ZmECWrg-230" value="设备管理模块" style="text;html=1;align=center;verticalAlign=middle;resizable=0;points=[];autosize=1;strokeColor=none;fillColor=none;fontSize=16;" parent="1" vertex="1">
          <mxGeometry x="439" y="968" width="114" height="31" as="geometry" />
        </mxCell>
        <mxCell id="rQOuPGtzIIbg4ZmECWrg-231" value="设备添加" style="whiteSpace=wrap;html=1;fontSize=12;align=left;spacing=2;spacingTop=0;" parent="1" vertex="1">
          <mxGeometry x="448" y="1008" width="90" height="30" as="geometry" />
        </mxCell>
        <mxCell id="rQOuPGtzIIbg4ZmECWrg-280" style="edgeStyle=none;curved=1;rounded=0;orthogonalLoop=1;jettySize=auto;html=1;entryX=0.75;entryY=0;entryDx=0;entryDy=0;fontSize=12;startSize=8;endSize=8;startArrow=classic;startFill=1;" parent="1" source="rQOuPGtzIIbg4ZmECWrg-232" target="rQOuPGtzIIbg4ZmECWrg-240" edge="1">
          <mxGeometry relative="1" as="geometry" />
        </mxCell>
        <mxCell id="rQOuPGtzIIbg4ZmECWrg-232" value="设备编辑删除" style="whiteSpace=wrap;html=1;fontSize=12;align=left;spacing=2;spacingTop=0;" parent="1" vertex="1">
          <mxGeometry x="448" y="1038" width="90" height="30" as="geometry" />
        </mxCell>
        <mxCell id="rQOuPGtzIIbg4ZmECWrg-233" value="安全管理模块" style="text;html=1;align=center;verticalAlign=middle;resizable=0;points=[];autosize=1;strokeColor=none;fillColor=none;fontSize=16;" parent="1" vertex="1">
          <mxGeometry x="917" y="968" width="114" height="31" as="geometry" />
        </mxCell>
        <mxCell id="MGpcBs6N29of94yibkw6-13" style="rounded=0;orthogonalLoop=1;jettySize=auto;html=1;exitX=0.5;exitY=1;exitDx=0;exitDy=0;startArrow=classic;startFill=1;" parent="1" source="rQOuPGtzIIbg4ZmECWrg-234" target="rQOuPGtzIIbg4ZmECWrg-246" edge="1">
          <mxGeometry relative="1" as="geometry" />
        </mxCell>
        <mxCell id="rQOuPGtzIIbg4ZmECWrg-234" value="安全事件查询" style="whiteSpace=wrap;html=1;fontSize=12;align=left;spacing=2;spacingTop=0;" parent="1" vertex="1">
          <mxGeometry x="926" y="1008" width="90" height="30" as="geometry" />
        </mxCell>
        <mxCell id="rQOuPGtzIIbg4ZmECWrg-239" value="auth模块" style="whiteSpace=wrap;html=1;fontSize=14;align=center;spacing=2;spacingTop=0;" parent="1" vertex="1">
          <mxGeometry x="465" y="1651" width="120" height="35" as="geometry" />
        </mxCell>
        <mxCell id="rQOuPGtzIIbg4ZmECWrg-240" value="config模块" style="whiteSpace=wrap;html=1;fontSize=14;align=center;spacing=2;spacingTop=0;" parent="1" vertex="1">
          <mxGeometry x="328" y="1651" width="120" height="35" as="geometry" />
        </mxCell>
        <mxCell id="rQOuPGtzIIbg4ZmECWrg-270" style="edgeStyle=none;curved=1;rounded=0;orthogonalLoop=1;jettySize=auto;html=1;exitX=0.5;exitY=1;exitDx=0;exitDy=0;entryX=0.5;entryY=0;entryDx=0;entryDy=0;fontSize=12;startSize=8;endSize=8;startArrow=classic;startFill=1;" parent="1" source="rQOuPGtzIIbg4ZmECWrg-242" target="rQOuPGtzIIbg4ZmECWrg-255" edge="1">
          <mxGeometry relative="1" as="geometry" />
        </mxCell>
        <mxCell id="rQOuPGtzIIbg4ZmECWrg-242" value="perfoman模块" style="whiteSpace=wrap;html=1;fontSize=14;align=center;spacing=2;spacingTop=0;" parent="1" vertex="1">
          <mxGeometry x="751" y="1651" width="120" height="35" as="geometry" />
        </mxCell>
        <mxCell id="rQOuPGtzIIbg4ZmECWrg-264" style="edgeStyle=none;curved=1;rounded=0;orthogonalLoop=1;jettySize=auto;html=1;exitX=0.5;exitY=1;exitDx=0;exitDy=0;entryX=0.5;entryY=0;entryDx=0;entryDy=0;fontSize=12;startSize=8;endSize=8;startArrow=classic;startFill=1;" parent="1" source="rQOuPGtzIIbg4ZmECWrg-244" target="rQOuPGtzIIbg4ZmECWrg-251" edge="1">
          <mxGeometry relative="1" as="geometry" />
        </mxCell>
        <mxCell id="rQOuPGtzIIbg4ZmECWrg-265" style="edgeStyle=none;curved=1;rounded=0;orthogonalLoop=1;jettySize=auto;html=1;exitX=0.5;exitY=1;exitDx=0;exitDy=0;entryX=0.5;entryY=0;entryDx=0;entryDy=0;fontSize=12;startSize=8;endSize=8;startArrow=classic;startFill=1;" parent="1" source="rQOuPGtzIIbg4ZmECWrg-244" target="rQOuPGtzIIbg4ZmECWrg-252" edge="1">
          <mxGeometry relative="1" as="geometry" />
        </mxCell>
        <mxCell id="rQOuPGtzIIbg4ZmECWrg-266" style="edgeStyle=none;curved=1;rounded=0;orthogonalLoop=1;jettySize=auto;html=1;exitX=0.5;exitY=1;exitDx=0;exitDy=0;entryX=0.5;entryY=0;entryDx=0;entryDy=0;fontSize=12;startSize=8;endSize=8;startArrow=classic;startFill=1;" parent="1" source="rQOuPGtzIIbg4ZmECWrg-244" target="rQOuPGtzIIbg4ZmECWrg-253" edge="1">
          <mxGeometry relative="1" as="geometry" />
        </mxCell>
        <mxCell id="rQOuPGtzIIbg4ZmECWrg-267" style="edgeStyle=none;curved=1;rounded=0;orthogonalLoop=1;jettySize=auto;html=1;exitX=0.5;exitY=1;exitDx=0;exitDy=0;entryX=0.5;entryY=0;entryDx=0;entryDy=0;fontSize=12;startSize=8;endSize=8;startArrow=classic;startFill=1;" parent="1" source="rQOuPGtzIIbg4ZmECWrg-244" target="rQOuPGtzIIbg4ZmECWrg-258" edge="1">
          <mxGeometry relative="1" as="geometry" />
        </mxCell>
        <mxCell id="rQOuPGtzIIbg4ZmECWrg-268" style="edgeStyle=none;curved=1;rounded=0;orthogonalLoop=1;jettySize=auto;html=1;exitX=0.5;exitY=1;exitDx=0;exitDy=0;entryX=0.5;entryY=0;entryDx=0;entryDy=0;fontSize=12;startSize=8;endSize=8;startArrow=classic;startFill=1;" parent="1" source="rQOuPGtzIIbg4ZmECWrg-244" target="rQOuPGtzIIbg4ZmECWrg-257" edge="1">
          <mxGeometry relative="1" as="geometry" />
        </mxCell>
        <mxCell id="rQOuPGtzIIbg4ZmECWrg-269" style="edgeStyle=none;curved=1;rounded=0;orthogonalLoop=1;jettySize=auto;html=1;exitX=0.5;exitY=1;exitDx=0;exitDy=0;entryX=0.5;entryY=0;entryDx=0;entryDy=0;fontSize=12;startSize=8;endSize=8;startArrow=classic;startFill=1;" parent="1" source="rQOuPGtzIIbg4ZmECWrg-244" target="rQOuPGtzIIbg4ZmECWrg-260" edge="1">
          <mxGeometry relative="1" as="geometry" />
        </mxCell>
        <mxCell id="rQOuPGtzIIbg4ZmECWrg-279" style="edgeStyle=none;curved=1;rounded=0;orthogonalLoop=1;jettySize=auto;html=1;exitX=0.5;exitY=1;exitDx=0;exitDy=0;entryX=0.5;entryY=0;entryDx=0;entryDy=0;fontSize=12;startSize=8;endSize=8;startArrow=classic;startFill=1;" parent="1" source="rQOuPGtzIIbg4ZmECWrg-244" target="rQOuPGtzIIbg4ZmECWrg-277" edge="1">
          <mxGeometry relative="1" as="geometry" />
        </mxCell>
        <mxCell id="rQOuPGtzIIbg4ZmECWrg-244" value="system模块" style="whiteSpace=wrap;html=1;fontSize=14;align=center;spacing=2;spacingTop=0;" parent="1" vertex="1">
          <mxGeometry x="191" y="1651" width="120" height="35" as="geometry" />
        </mxCell>
        <mxCell id="rQOuPGtzIIbg4ZmECWrg-271" style="edgeStyle=none;curved=1;rounded=0;orthogonalLoop=1;jettySize=auto;html=1;exitX=0.5;exitY=1;exitDx=0;exitDy=0;entryX=0.5;entryY=0;entryDx=0;entryDy=0;fontSize=12;startSize=8;endSize=8;startArrow=classic;startFill=1;" parent="1" source="rQOuPGtzIIbg4ZmECWrg-246" target="rQOuPGtzIIbg4ZmECWrg-254" edge="1">
          <mxGeometry relative="1" as="geometry" />
        </mxCell>
        <mxCell id="rQOuPGtzIIbg4ZmECWrg-246" value="alert模块" style="whiteSpace=wrap;html=1;fontSize=14;align=center;spacing=2;spacingTop=0;" parent="1" vertex="1">
          <mxGeometry x="603" y="1651" width="120" height="35" as="geometry" />
        </mxCell>
        <mxCell id="rQOuPGtzIIbg4ZmECWrg-247" value="tr069" style="whiteSpace=wrap;html=1;fontSize=14;align=center;spacing=2;spacingTop=0;" parent="1" vertex="1">
          <mxGeometry x="888" y="1651" width="120" height="35" as="geometry" />
        </mxCell>
        <mxCell id="rQOuPGtzIIbg4ZmECWrg-248" value="OM" style="text;html=1;align=center;verticalAlign=middle;resizable=0;points=[];autosize=1;strokeColor=none;fillColor=none;fontSize=20;fontStyle=1" parent="1" vertex="1">
          <mxGeometry x="93" y="1653" width="51" height="36" as="geometry" />
        </mxCell>
        <mxCell id="rQOuPGtzIIbg4ZmECWrg-249" value="AGENT" style="text;html=1;align=center;verticalAlign=middle;resizable=0;points=[];autosize=1;strokeColor=none;fillColor=none;fontSize=20;fontStyle=1" parent="1" vertex="1">
          <mxGeometry x="67" y="1765.5" width="87" height="36" as="geometry" />
        </mxCell>
        <mxCell id="rQOuPGtzIIbg4ZmECWrg-251" value="license" style="whiteSpace=wrap;html=1;fontSize=14;align=center;spacing=2;spacingTop=0;" parent="1" vertex="1">
          <mxGeometry x="194" y="1766" width="70" height="35" as="geometry" />
        </mxCell>
        <mxCell id="rQOuPGtzIIbg4ZmECWrg-252" value="证书" style="whiteSpace=wrap;html=1;fontSize=14;align=center;spacing=2;spacingTop=0;" parent="1" vertex="1">
          <mxGeometry x="280" y="1766" width="70" height="35" as="geometry" />
        </mxCell>
        <mxCell id="MGpcBs6N29of94yibkw6-16" style="rounded=0;orthogonalLoop=1;jettySize=auto;html=1;exitX=0.5;exitY=1;exitDx=0;exitDy=0;entryX=0.5;entryY=0;entryDx=0;entryDy=0;startArrow=classic;startFill=1;" parent="1" source="rQOuPGtzIIbg4ZmECWrg-253" target="MGpcBs6N29of94yibkw6-15" edge="1">
          <mxGeometry relative="1" as="geometry" />
        </mxCell>
        <mxCell id="rQOuPGtzIIbg4ZmECWrg-253" value="command" style="whiteSpace=wrap;html=1;fontSize=14;align=center;spacing=2;spacingTop=0;" parent="1" vertex="1">
          <mxGeometry x="365" y="1766" width="70" height="35" as="geometry" />
        </mxCell>
        <mxCell id="MGpcBs6N29of94yibkw6-17" style="rounded=0;orthogonalLoop=1;jettySize=auto;html=1;exitX=0.5;exitY=1;exitDx=0;exitDy=0;entryX=0.5;entryY=0;entryDx=0;entryDy=0;startArrow=classic;startFill=1;" parent="1" source="rQOuPGtzIIbg4ZmECWrg-254" target="MGpcBs6N29of94yibkw6-15" edge="1">
          <mxGeometry relative="1" as="geometry" />
        </mxCell>
        <mxCell id="rQOuPGtzIIbg4ZmECWrg-254" value="alert" style="whiteSpace=wrap;html=1;fontSize=14;align=center;spacing=2;spacingTop=0;" parent="1" vertex="1">
          <mxGeometry x="870" y="1766" width="70" height="35" as="geometry" />
        </mxCell>
        <mxCell id="MGpcBs6N29of94yibkw6-18" style="rounded=0;orthogonalLoop=1;jettySize=auto;html=1;exitX=0.5;exitY=1;exitDx=0;exitDy=0;entryX=0.5;entryY=0;entryDx=0;entryDy=0;startArrow=classic;startFill=1;" parent="1" source="rQOuPGtzIIbg4ZmECWrg-255" target="MGpcBs6N29of94yibkw6-15" edge="1">
          <mxGeometry relative="1" as="geometry" />
        </mxCell>
        <mxCell id="rQOuPGtzIIbg4ZmECWrg-255" value="performance" style="whiteSpace=wrap;html=1;fontSize=14;align=center;spacing=2;spacingTop=0;" parent="1" vertex="1">
          <mxGeometry x="960" y="1766" width="82" height="35" as="geometry" />
        </mxCell>
        <mxCell id="rQOuPGtzIIbg4ZmECWrg-257" value="白名单" style="whiteSpace=wrap;html=1;fontSize=14;align=center;spacing=2;spacingTop=0;" parent="1" vertex="1">
          <mxGeometry x="543" y="1766" width="70" height="35" as="geometry" />
        </mxCell>
        <mxCell id="rQOuPGtzIIbg4ZmECWrg-258" value="3GPP" style="whiteSpace=wrap;html=1;fontSize=14;align=center;spacing=2;spacingTop=0;" parent="1" vertex="1">
          <mxGeometry x="448" y="1766" width="82" height="35" as="geometry" />
        </mxCell>
        <mxCell id="rQOuPGtzIIbg4ZmECWrg-260" value="设备调试维护" style="whiteSpace=wrap;html=1;fontSize=14;align=center;spacing=2;spacingTop=0;" parent="1" vertex="1">
          <mxGeometry x="629" y="1766" width="100" height="35" as="geometry" />
        </mxCell>
        <mxCell id="rQOuPGtzIIbg4ZmECWrg-277" value="健康检测" style="whiteSpace=wrap;html=1;fontSize=14;align=center;spacing=2;spacingTop=0;" parent="1" vertex="1">
          <mxGeometry x="751" y="1766" width="100" height="35" as="geometry" />
        </mxCell>
        <mxCell id="MGpcBs6N29of94yibkw6-1" value="用户管理模块" style="text;html=1;align=center;verticalAlign=middle;resizable=0;points=[];autosize=1;strokeColor=none;fillColor=none;fontSize=16;" parent="1" vertex="1">
          <mxGeometry x="680" y="968" width="114" height="31" as="geometry" />
        </mxCell>
        <mxCell id="MGpcBs6N29of94yibkw6-2" value="用户管理" style="whiteSpace=wrap;html=1;fontSize=12;align=left;spacing=2;spacingTop=0;" parent="1" vertex="1">
          <mxGeometry x="689" y="1008" width="90" height="30" as="geometry" />
        </mxCell>
        <mxCell id="MGpcBs6N29of94yibkw6-5" value="角色管理" style="whiteSpace=wrap;html=1;fontSize=12;align=left;spacing=2;spacingTop=0;" parent="1" vertex="1">
          <mxGeometry x="689" y="1038" width="90" height="30" as="geometry" />
        </mxCell>
        <mxCell id="MGpcBs6N29of94yibkw6-6" value="权限查看" style="whiteSpace=wrap;html=1;fontSize=12;align=left;spacing=2;spacingTop=0;" parent="1" vertex="1">
          <mxGeometry x="689" y="1068" width="90" height="30" as="geometry" />
        </mxCell>
        <mxCell id="MGpcBs6N29of94yibkw6-10" value="" style="endArrow=classic;html=1;rounded=0;exitX=0.5;exitY=1;exitDx=0;exitDy=0;startArrow=classic;startFill=1;" parent="1" source="rQOuPGtzIIbg4ZmECWrg-224" edge="1">
          <mxGeometry width="50" height="50" relative="1" as="geometry">
            <mxPoint x="579" y="1266" as="sourcePoint" />
            <mxPoint x="431" y="1650" as="targetPoint" />
          </mxGeometry>
        </mxCell>
        <mxCell id="MGpcBs6N29of94yibkw6-15" value="AGC" style="whiteSpace=wrap;html=1;" parent="1" vertex="1">
          <mxGeometry x="164" y="1892" width="904" height="38" as="geometry" />
        </mxCell>
        <mxCell id="MGpcBs6N29of94yibkw6-23" style="rounded=0;orthogonalLoop=1;jettySize=auto;html=1;exitX=0.5;exitY=1;exitDx=0;exitDy=0;startArrow=classic;startFill=1;" parent="1" source="MGpcBs6N29of94yibkw6-22" target="rQOuPGtzIIbg4ZmECWrg-239" edge="1">
          <mxGeometry relative="1" as="geometry" />
        </mxCell>
        <mxCell id="MGpcBs6N29of94yibkw6-22" value="登录验证" style="whiteSpace=wrap;html=1;fontSize=12;align=left;spacing=2;spacingTop=0;" parent="1" vertex="1">
          <mxGeometry x="689" y="1098" width="90" height="30" as="geometry" />
        </mxCell>
        <mxCell id="MGpcBs6N29of94yibkw6-25" value="HTTP" style="whiteSpace=wrap;html=1;dashed=1;" parent="1" vertex="1">
          <mxGeometry x="129" y="1598" width="84" height="36" as="geometry" />
        </mxCell>
        <mxCell id="MGpcBs6N29of94yibkw6-26" value="HTTP" style="whiteSpace=wrap;html=1;dashed=1;" parent="1" vertex="1">
          <mxGeometry x="128" y="1709" width="84" height="36" as="geometry" />
        </mxCell>
        <mxCell id="MGpcBs6N29of94yibkw6-27" value="AMQP" style="whiteSpace=wrap;html=1;dashed=1;" parent="1" vertex="1">
          <mxGeometry x="129" y="1825" width="84" height="36" as="geometry" />
        </mxCell>
        <mxCell id="6QcQfjJBbUapgguKm4HS-177" value="" style="group" vertex="1" connectable="0" parent="1">
          <mxGeometry x="1939" y="2356" width="170" height="240" as="geometry" />
        </mxCell>
        <mxCell id="6QcQfjJBbUapgguKm4HS-164" value="" style="whiteSpace=wrap;html=1;dashed=1;" vertex="1" parent="6QcQfjJBbUapgguKm4HS-177">
          <mxGeometry width="170" height="240" as="geometry" />
        </mxCell>
        <mxCell id="6QcQfjJBbUapgguKm4HS-165" value="Web模块" style="text;html=1;strokeColor=none;fillColor=none;align=center;verticalAlign=middle;whiteSpace=wrap;rounded=0;" vertex="1" parent="6QcQfjJBbUapgguKm4HS-177">
          <mxGeometry x="15.25" y="5" width="133" height="30" as="geometry" />
        </mxCell>
        <mxCell id="6QcQfjJBbUapgguKm4HS-168" value="登录验证" style="whiteSpace=wrap;html=1;fontSize=12;align=center;spacing=2;spacingTop=0;fillColor=#dae8fc;strokeColor=#6c8ebf;" vertex="1" parent="6QcQfjJBbUapgguKm4HS-177">
          <mxGeometry x="42" y="42" width="90" height="30" as="geometry" />
        </mxCell>
        <mxCell id="6QcQfjJBbUapgguKm4HS-169" value="权限渲染" style="whiteSpace=wrap;html=1;fontSize=12;align=center;spacing=2;spacingTop=0;fillColor=#dae8fc;strokeColor=#6c8ebf;" vertex="1" parent="6QcQfjJBbUapgguKm4HS-177">
          <mxGeometry x="42" y="116" width="90" height="30" as="geometry" />
        </mxCell>
        <mxCell id="6QcQfjJBbUapgguKm4HS-170" value="配置渲染" style="whiteSpace=wrap;html=1;fontSize=12;align=center;spacing=2;spacingTop=0;fillColor=#dae8fc;strokeColor=#6c8ebf;" vertex="1" parent="6QcQfjJBbUapgguKm4HS-177">
          <mxGeometry x="42" y="79" width="90" height="30" as="geometry" />
        </mxCell>
        <mxCell id="6QcQfjJBbUapgguKm4HS-172" value="WebSSH终端" style="whiteSpace=wrap;html=1;fontSize=12;align=center;spacing=2;spacingTop=0;fillColor=#dae8fc;strokeColor=#6c8ebf;" vertex="1" parent="6QcQfjJBbUapgguKm4HS-177">
          <mxGeometry x="42" y="153" width="90" height="30" as="geometry" />
        </mxCell>
        <mxCell id="6QcQfjJBbUapgguKm4HS-173" value="表单输入控制验证" style="whiteSpace=wrap;html=1;fontSize=12;align=center;spacing=2;spacingTop=0;fillColor=#dae8fc;strokeColor=#6c8ebf;" vertex="1" parent="6QcQfjJBbUapgguKm4HS-177">
          <mxGeometry x="33.5" y="190" width="107" height="30" as="geometry" />
        </mxCell>
        <mxCell id="6QcQfjJBbUapgguKm4HS-133" value="" style="whiteSpace=wrap;html=1;dashed=1;" vertex="1" parent="1">
          <mxGeometry x="2324" y="2004" width="311" height="306" as="geometry" />
        </mxCell>
        <mxCell id="6QcQfjJBbUapgguKm4HS-134" value="AKA管理" style="whiteSpace=wrap;html=1;fontSize=12;align=center;spacing=2;spacingTop=0;fillColor=#dae8fc;strokeColor=#6c8ebf;" vertex="1" parent="1">
          <mxGeometry x="2373" y="2082.08" width="90" height="32.5" as="geometry" />
        </mxCell>
        <mxCell id="6QcQfjJBbUapgguKm4HS-135" value="白名单管理" style="whiteSpace=wrap;html=1;fontSize=12;align=center;spacing=2;spacingTop=0;fillColor=#dae8fc;strokeColor=#6c8ebf;" vertex="1" parent="1">
          <mxGeometry x="2484" y="2082.08" width="90" height="32.5" as="geometry" />
        </mxCell>
        <mxCell id="6QcQfjJBbUapgguKm4HS-136" value="健康检测" style="whiteSpace=wrap;html=1;fontSize=12;align=center;spacing=2;spacingTop=0;fillColor=#dae8fc;strokeColor=#6c8ebf;" vertex="1" parent="1">
          <mxGeometry x="2373" y="2121.08" width="90" height="32.5" as="geometry" />
        </mxCell>
        <mxCell id="6QcQfjJBbUapgguKm4HS-137" value="证书上传" style="whiteSpace=wrap;html=1;fontSize=12;align=center;spacing=2;spacingTop=0;fillColor=#dae8fc;strokeColor=#6c8ebf;" vertex="1" parent="1">
          <mxGeometry x="2373" y="2162.0033333333336" width="90" height="32.5" as="geometry" />
        </mxCell>
        <mxCell id="6QcQfjJBbUapgguKm4HS-138" value="Agent模块" style="text;html=1;strokeColor=none;fillColor=none;align=center;verticalAlign=middle;whiteSpace=wrap;rounded=0;" vertex="1" parent="1">
          <mxGeometry x="2419" y="2016" width="129" height="33" as="geometry" />
        </mxCell>
        <mxCell id="6QcQfjJBbUapgguKm4HS-157" value="License上传" style="whiteSpace=wrap;html=1;fontSize=12;align=center;spacing=2;spacingTop=0;fillColor=#dae8fc;strokeColor=#6c8ebf;" vertex="1" parent="1">
          <mxGeometry x="2484" y="2162.0033333333336" width="90" height="32.5" as="geometry" />
        </mxCell>
        <mxCell id="6QcQfjJBbUapgguKm4HS-159" value="告警上报/恢复" style="whiteSpace=wrap;html=1;fontSize=12;align=center;spacing=2;spacingTop=0;fillColor=#dae8fc;strokeColor=#6c8ebf;" vertex="1" parent="1">
          <mxGeometry x="2373" y="2203.0033333333336" width="90" height="32.5" as="geometry" />
        </mxCell>
        <mxCell id="6QcQfjJBbUapgguKm4HS-199" value="抓包" style="whiteSpace=wrap;html=1;fontSize=12;align=center;spacing=2;spacingTop=0;fillColor=#dae8fc;strokeColor=#6c8ebf;" vertex="1" parent="1">
          <mxGeometry x="2484" y="2203.0033333333336" width="90" height="32.5" as="geometry" />
        </mxCell>
        <mxCell id="6QcQfjJBbUapgguKm4HS-121" value="" style="whiteSpace=wrap;html=1;dashed=1;" vertex="1" parent="1">
          <mxGeometry x="1763" y="2032" width="170" height="307" as="geometry" />
        </mxCell>
        <mxCell id="6QcQfjJBbUapgguKm4HS-122" value="维护管理" style="whiteSpace=wrap;html=1;fontSize=12;align=center;spacing=2;spacingTop=0;fillColor=#dae8fc;strokeColor=#6c8ebf;" vertex="1" parent="1">
          <mxGeometry x="1802.25" y="2111.6124031007753" width="90" height="30.232558139534884" as="geometry" />
        </mxCell>
        <mxCell id="6QcQfjJBbUapgguKm4HS-123" value="配置管理" style="whiteSpace=wrap;html=1;fontSize=12;align=center;spacing=2;spacingTop=0;fillColor=#dae8fc;strokeColor=#6c8ebf;" vertex="1" parent="1">
          <mxGeometry x="1802.25" y="2074.3255813953488" width="90" height="30.232558139534884" as="geometry" />
        </mxCell>
        <mxCell id="6QcQfjJBbUapgguKm4HS-124" value="Agent通信" style="whiteSpace=wrap;html=1;fontSize=12;align=center;spacing=2;spacingTop=0;fillColor=#dae8fc;strokeColor=#6c8ebf;" vertex="1" parent="1">
          <mxGeometry x="1802.25" y="2147.891472868217" width="90" height="30.232558139534884" as="geometry" />
        </mxCell>
        <mxCell id="6QcQfjJBbUapgguKm4HS-126" value="Config模块" style="text;html=1;strokeColor=none;fillColor=none;align=center;verticalAlign=middle;whiteSpace=wrap;rounded=0;" vertex="1" parent="1">
          <mxGeometry x="1778.25" y="2037.0387596899225" width="133" height="30.232558139534884" as="geometry" />
        </mxCell>
        <mxCell id="6QcQfjJBbUapgguKm4HS-158" value="配置日志管理" style="whiteSpace=wrap;html=1;fontSize=12;align=center;spacing=2;spacingTop=0;fillColor=#dae8fc;strokeColor=#6c8ebf;" vertex="1" parent="1">
          <mxGeometry x="1802.25" y="2184.170542635659" width="90" height="30.232558139534884" as="geometry" />
        </mxCell>
        <mxCell id="6QcQfjJBbUapgguKm4HS-162" value="操作日志管理" style="whiteSpace=wrap;html=1;fontSize=12;align=center;spacing=2;spacingTop=0;fillColor=#dae8fc;strokeColor=#6c8ebf;" vertex="1" parent="1">
          <mxGeometry x="1802.25" y="2219.4418604651164" width="90" height="30.232558139534884" as="geometry" />
        </mxCell>
        <mxCell id="6QcQfjJBbUapgguKm4HS-188" value="设备Shell管理" style="whiteSpace=wrap;html=1;fontSize=12;align=center;spacing=2;spacingTop=0;fillColor=#dae8fc;strokeColor=#6c8ebf;" vertex="1" parent="1">
          <mxGeometry x="1803" y="2255.720930232558" width="90" height="30.232558139534884" as="geometry" />
        </mxCell>
        <mxCell id="6QcQfjJBbUapgguKm4HS-209" value="设备管理" style="whiteSpace=wrap;html=1;fontSize=12;align=center;spacing=2;spacingTop=0;fillColor=#dae8fc;strokeColor=#6c8ebf;" vertex="1" parent="1">
          <mxGeometry x="1803" y="2292.0009302325584" width="90" height="30.232558139534884" as="geometry" />
        </mxCell>
        <mxCell id="6QcQfjJBbUapgguKm4HS-210" value="进程复位" style="whiteSpace=wrap;html=1;fontSize=12;align=center;spacing=2;spacingTop=0;fillColor=#dae8fc;strokeColor=#6c8ebf;" vertex="1" parent="1">
          <mxGeometry x="2484" y="2121.08" width="90" height="32.5" as="geometry" />
        </mxCell>
        <mxCell id="6QcQfjJBbUapgguKm4HS-211" value="告警检测" style="whiteSpace=wrap;html=1;fontSize=12;align=center;spacing=2;spacingTop=0;fillColor=#dae8fc;strokeColor=#6c8ebf;" vertex="1" parent="1">
          <mxGeometry x="2373" y="2246.0033333333336" width="90" height="32.5" as="geometry" />
        </mxCell>
        <mxCell id="6QcQfjJBbUapgguKm4HS-151" value="" style="whiteSpace=wrap;html=1;dashed=1;" vertex="1" parent="1">
          <mxGeometry x="2119" y="2030" width="170" height="308" as="geometry" />
        </mxCell>
        <mxCell id="6QcQfjJBbUapgguKm4HS-152" value="历史告警管理" style="whiteSpace=wrap;html=1;fontSize=12;align=center;spacing=2;spacingTop=0;fillColor=#dae8fc;strokeColor=#6c8ebf;" vertex="1" parent="1">
          <mxGeometry x="2156" y="2074.33" width="90" height="32.5" as="geometry" />
        </mxCell>
        <mxCell id="6QcQfjJBbUapgguKm4HS-154" value="当前告警管理" style="whiteSpace=wrap;html=1;fontSize=12;align=center;spacing=2;spacingTop=0;fillColor=#dae8fc;strokeColor=#6c8ebf;" vertex="1" parent="1">
          <mxGeometry x="2156" y="2114.4133333333334" width="90" height="32.5" as="geometry" />
        </mxCell>
        <mxCell id="6QcQfjJBbUapgguKm4HS-156" value="Alert模块" style="text;html=1;strokeColor=none;fillColor=none;align=center;verticalAlign=middle;whiteSpace=wrap;rounded=0;" vertex="1" parent="1">
          <mxGeometry x="2132" y="2037.0366666666666" width="133" height="32.5" as="geometry" />
        </mxCell>
        <mxCell id="6QcQfjJBbUapgguKm4HS-160" value="安全事件" style="whiteSpace=wrap;html=1;fontSize=12;align=center;spacing=2;spacingTop=0;fillColor=#dae8fc;strokeColor=#6c8ebf;" vertex="1" parent="1">
          <mxGeometry x="2156" y="2153.4133333333334" width="90" height="32.5" as="geometry" />
        </mxCell>
        <mxCell id="6QcQfjJBbUapgguKm4HS-212" value="" style="group" vertex="1" connectable="0" parent="1">
          <mxGeometry x="1763" y="2356" width="170" height="87" as="geometry" />
        </mxCell>
        <mxCell id="6QcQfjJBbUapgguKm4HS-145" value="" style="whiteSpace=wrap;html=1;dashed=1;" vertex="1" parent="6QcQfjJBbUapgguKm4HS-212">
          <mxGeometry width="170" height="87" as="geometry" />
        </mxCell>
        <mxCell id="6QcQfjJBbUapgguKm4HS-150" value="TR069模块" style="text;html=1;strokeColor=none;fillColor=none;align=center;verticalAlign=middle;whiteSpace=wrap;rounded=0;" vertex="1" parent="6QcQfjJBbUapgguKm4HS-212">
          <mxGeometry x="15.25" y="5" width="133" height="30" as="geometry" />
        </mxCell>
        <mxCell id="6QcQfjJBbUapgguKm4HS-187" value="北向接口层" style="whiteSpace=wrap;html=1;fontSize=12;align=center;spacing=2;spacingTop=0;fillColor=#dae8fc;strokeColor=#6c8ebf;" vertex="1" parent="6QcQfjJBbUapgguKm4HS-212">
          <mxGeometry x="40" y="40" width="90" height="30" as="geometry" />
        </mxCell>
        <mxCell id="6QcQfjJBbUapgguKm4HS-213" value="" style="group" vertex="1" connectable="0" parent="1">
          <mxGeometry x="1581.62" y="2356" width="170" height="135" as="geometry" />
        </mxCell>
        <mxCell id="6QcQfjJBbUapgguKm4HS-139" value="" style="whiteSpace=wrap;html=1;dashed=1;" vertex="1" parent="6QcQfjJBbUapgguKm4HS-213">
          <mxGeometry width="170" height="135" as="geometry" />
        </mxCell>
        <mxCell id="6QcQfjJBbUapgguKm4HS-140" value="性能统计" style="whiteSpace=wrap;html=1;fontSize=12;align=center;spacing=2;spacingTop=0;fillColor=#dae8fc;strokeColor=#6c8ebf;" vertex="1" parent="6QcQfjJBbUapgguKm4HS-213">
          <mxGeometry x="39.25" y="79" width="90" height="30" as="geometry" />
        </mxCell>
        <mxCell id="6QcQfjJBbUapgguKm4HS-141" value="话统管理" style="whiteSpace=wrap;html=1;fontSize=12;align=center;spacing=2;spacingTop=0;fillColor=#dae8fc;strokeColor=#6c8ebf;" vertex="1" parent="6QcQfjJBbUapgguKm4HS-213">
          <mxGeometry x="39.25" y="42" width="90" height="30" as="geometry" />
        </mxCell>
        <mxCell id="6QcQfjJBbUapgguKm4HS-144" value="Performance模块" style="text;html=1;strokeColor=none;fillColor=none;align=center;verticalAlign=middle;whiteSpace=wrap;rounded=0;" vertex="1" parent="6QcQfjJBbUapgguKm4HS-213">
          <mxGeometry x="15.25" y="5" width="133" height="30" as="geometry" />
        </mxCell>
        <mxCell id="6QcQfjJBbUapgguKm4HS-127" value="" style="whiteSpace=wrap;html=1;dashed=1;" vertex="1" parent="1">
          <mxGeometry x="1939" y="2031" width="170" height="308" as="geometry" />
        </mxCell>
        <mxCell id="6QcQfjJBbUapgguKm4HS-128" value="备份恢复管理" style="whiteSpace=wrap;html=1;fontSize=12;align=center;spacing=2;spacingTop=0;fillColor=#dae8fc;strokeColor=#6c8ebf;" vertex="1" parent="1">
          <mxGeometry x="1978.25" y="2116.5833333333335" width="90" height="32.5" as="geometry" />
        </mxCell>
        <mxCell id="6QcQfjJBbUapgguKm4HS-129" value="Agent注册注销" style="whiteSpace=wrap;html=1;fontSize=12;align=center;spacing=2;spacingTop=0;fillColor=#dae8fc;strokeColor=#6c8ebf;" vertex="1" parent="1">
          <mxGeometry x="1978.25" y="2076.5" width="90" height="32.5" as="geometry" />
        </mxCell>
        <mxCell id="6QcQfjJBbUapgguKm4HS-130" value="系统状态管理" style="whiteSpace=wrap;html=1;fontSize=12;align=center;spacing=2;spacingTop=0;fillColor=#dae8fc;strokeColor=#6c8ebf;" vertex="1" parent="1">
          <mxGeometry x="1978.25" y="2155.5833333333335" width="90" height="32.5" as="geometry" />
        </mxCell>
        <mxCell id="6QcQfjJBbUapgguKm4HS-131" value="日志级别管理" style="whiteSpace=wrap;html=1;fontSize=12;align=center;spacing=2;spacingTop=0;fillColor=#dae8fc;strokeColor=#6c8ebf;" vertex="1" parent="1">
          <mxGeometry x="1978.25" y="2194.5833333333335" width="90" height="32.5" as="geometry" />
        </mxCell>
        <mxCell id="6QcQfjJBbUapgguKm4HS-132" value="System模块" style="text;html=1;strokeColor=none;fillColor=none;align=center;verticalAlign=middle;whiteSpace=wrap;rounded=0;" vertex="1" parent="1">
          <mxGeometry x="1954.25" y="2036.4166666666667" width="133" height="32.5" as="geometry" />
        </mxCell>
        <mxCell id="6QcQfjJBbUapgguKm4HS-207" value="抓包管理" style="whiteSpace=wrap;html=1;fontSize=12;align=center;spacing=2;spacingTop=0;fillColor=#dae8fc;strokeColor=#6c8ebf;" vertex="1" parent="1">
          <mxGeometry x="1978.25" y="2235.0033333333336" width="90" height="32.5" as="geometry" />
        </mxCell>
        <mxCell id="6QcQfjJBbUapgguKm4HS-105" value="" style="whiteSpace=wrap;html=1;dashed=1;" vertex="1" parent="1">
          <mxGeometry x="1580" y="2031" width="170" height="308" as="geometry" />
        </mxCell>
        <mxCell id="6QcQfjJBbUapgguKm4HS-110" value="用户管理" style="whiteSpace=wrap;html=1;fontSize=12;align=center;spacing=2;spacingTop=0;fillColor=#dae8fc;strokeColor=#6c8ebf;" vertex="1" parent="1">
          <mxGeometry x="1624.12" y="2128.04" width="90" height="32.5" as="geometry" />
        </mxCell>
        <mxCell id="6QcQfjJBbUapgguKm4HS-111" value="角色管理" style="whiteSpace=wrap;html=1;fontSize=12;align=center;spacing=2;spacingTop=0;fillColor=#dae8fc;strokeColor=#6c8ebf;" vertex="1" parent="1">
          <mxGeometry x="1624.12" y="2087.9566666666665" width="90" height="32.5" as="geometry" />
        </mxCell>
        <mxCell id="6QcQfjJBbUapgguKm4HS-112" value="权限查看" style="whiteSpace=wrap;html=1;fontSize=12;align=center;spacing=2;spacingTop=0;fillColor=#dae8fc;strokeColor=#6c8ebf;" vertex="1" parent="1">
          <mxGeometry x="1624.12" y="2167.04" width="90" height="32.5" as="geometry" />
        </mxCell>
        <mxCell id="6QcQfjJBbUapgguKm4HS-113" value="登录验证" style="whiteSpace=wrap;html=1;fontSize=12;align=center;spacing=2;spacingTop=0;fillColor=#dae8fc;strokeColor=#6c8ebf;" vertex="1" parent="1">
          <mxGeometry x="1624.12" y="2206.04" width="90" height="32.5" as="geometry" />
        </mxCell>
        <mxCell id="6QcQfjJBbUapgguKm4HS-114" value="Auth模块" style="text;html=1;strokeColor=none;fillColor=none;align=center;verticalAlign=middle;whiteSpace=wrap;rounded=0;" vertex="1" parent="1">
          <mxGeometry x="1600.12" y="2047.8733333333332" width="133" height="32.5" as="geometry" />
        </mxCell>
        <mxCell id="6QcQfjJBbUapgguKm4HS-161" value="认证日志管理" style="whiteSpace=wrap;html=1;fontSize=12;align=center;spacing=2;spacingTop=0;fillColor=#dae8fc;strokeColor=#6c8ebf;" vertex="1" parent="1">
          <mxGeometry x="1624.12" y="2244.9966666666664" width="90" height="32.5" as="geometry" />
        </mxCell>
      </root>
    </mxGraphModel>
  </diagram>
</mxfile>
